<svg xmlns="http://www.w3.org/2000/svg" viewBox="0 0 120 120" fill="none" role="img" aria-label="RAK WisBlock RAK4631">
  <defs>
    <linearGradient id="rakpcb" x1="0" y1="0" x2="0" y2="1">
      <stop offset="0" stop-color="#161a20"/>
      <stop offset="1" stop-color="#0b0d11"/>
    </linearGradient>
    <linearGradient id="rakshield" x1="0" y1="0" x2="0" y2="1">
      <stop offset="0" stop-color="#eceff3"/>
      <stop offset="1" stop-color="#b8c0cc"/>
    </linearGradient>
  </defs>
  <!-- Core module PCB -->
  <rect x="38" y="10" width="44" height="100" rx="2.5" fill="url(#rakpcb)" stroke="#3b4250" stroke-width="1.3"/>
  <!-- Corner mounting pads -->
  <g fill="#d4af37">
    <circle cx="42" cy="14" r="3.6"/><circle cx="78" cy="14" r="3.6"/>
    <circle cx="42" cy="106" r="3.6"/><circle cx="78" cy="106" r="3.6"/>
  </g>
  <g fill="#f8fafc">
    <circle cx="42" cy="14" r="1.6"/><circle cx="78" cy="14" r="1.6"/>
    <circle cx="42" cy="106" r="1.6"/><circle cx="78" cy="106" r="1.6"/>
  </g>
  <!-- Side castellations / IO -->
  <g fill="#d4af37">
    <circle cx="34" cy="28" r="1.6"/><circle cx="34" cy="36" r="1.6"/><circle cx="34" cy="44" r="1.6"/>
    <circle cx="34" cy="52" r="1.6"/><circle cx="34" cy="60" r="1.6"/><circle cx="34" cy="68" r="1.6"/>
    <circle cx="34" cy="76" r="1.6"/><circle cx="34" cy="84" r="1.6"/><circle cx="34" cy="92" r="1.6"/>
    <circle cx="86" cy="28" r="1.6"/><circle cx="86" cy="36" r="1.6"/><circle cx="86" cy="44" r="1.6"/>
    <circle cx="86" cy="52" r="1.6"/><circle cx="86" cy="60" r="1.6"/><circle cx="86" cy="68" r="1.6"/>
    <circle cx="86" cy="76" r="1.6"/><circle cx="86" cy="84" r="1.6"/><circle cx="86" cy="92" r="1.6"/>
  </g>
  <!-- nRF / LoRa RF shield can -->
  <rect x="44" y="22" width="32" height="38" rx="1.8" fill="url(#rakshield)" stroke="#8b95a1" stroke-width="1"/>
  <rect x="48" y="27" width="24" height="18" rx="1.2" fill="#0f766e"/>
  <text x="51.5" y="39" fill="#ecfdf5" font-family="Arial, sans-serif" font-size="7" font-weight="800">RAK</text>
  <rect x="48" y="48" width="24" height="7" rx="1" fill="#e5e7eb" stroke="#94a3b8" stroke-width="0.5"/>
  <!-- SX1262 / connector block -->
  <rect x="46" y="66" width="28" height="32" rx="2.5" fill="#e8ebf0" stroke="#9ca3af" stroke-width="1"/>
  <path d="M51 74v18M57 70v26M63 70v26M69 76v14" stroke="#aeb6c2" stroke-width="2" stroke-linecap="round"/>
  <rect x="52" y="86" width="16" height="8" rx="1.2" fill="#1f2937"/>
  <!-- Side USB pads hint -->
  <rect x="39" y="40" width="4" height="8" rx="0.7" fill="#d1d5db"/>
  <rect x="77" y="38" width="4" height="12" rx="0.7" fill="#d1d5db"/>
</svg>
